<svg width="13" height="13" viewBox="0 0 13 13" fill="none" xmlns="http://www.w3.org/2000/svg">
<path d="M8.5 6.5C8.5 7.60457 7.60457 8.5 6.5 8.5C5.39543 8.5 4.5 7.60457 4.5 6.5C4.5 5.39543 5.39543 4.5 6.5 4.5C7.60457 4.5 8.5 5.39543 8.5 6.5ZM6.5 9.5C8.15685 9.5 9.5 8.15685 9.5 6.5C9.5 4.84315 8.15685 3.5 6.5 3.5C4.84315 3.5 3.5 4.84315 3.5 6.5C3.5 8.15685 4.84315 9.5 6.5 9.5ZM12.5 6.5C12.5 9.81371 9.81371 12.5 6.5 12.5C3.18629 12.5 0.5 9.81371 0.5 6.5C0.5 3.18629 3.18629 0.5 6.5 0.5C9.81371 0.5 12.5 3.18629 12.5 6.5Z" stroke="#FEFEFE"/>
</svg>
